<svg xmlns="http://www.w3.org/2000/svg" viewBox="0 0 960 242" fill="currentColor"><path d="M497 237h57V0h-57zm-223-31h4l3-1 4-1 3-1 2-1 3-2 2-2 2-2 1-3 2-3 1-3 1-3 1-4 1-4v-19l-2 1-2 1-3 1-3 1-3 1h-4l-3 1h-3l-4 1-3 1-4 1h-2l-3 1-2 1-2 1-2 1-2 1-2 1-2 1-1 2-1 1-2 2v2l-1 2v3l-1 2 1 3v2l1 2 1 2 1 2 1 2 1 1 2 1 2 1 2 1 2 1h2l3 1zM745 65h55v23l2-3 2-3 3-3 3-3 4-3 3-2 4-3 4-2 4-1 4-2 4-1 4-1 5-1h18l4 1 4 1h4l4 2 4 1 3 1 3 2 3 2 2 2 3 2 2 2 2 2 2 2 2 3 1 2 1 3 2 2 1 3 1 3 1 2v3l1 3 1 2v6l1 2v123h-57V130l-1-2v-2l-1-3v-2l-1-2-1-1-1-2-1-2-2-1-2-1-1-2-2-1-3-1h-2l-3-1h-13l-2 1-3 1-2 1-3 2-2 1-2 2-1 2-2 2-1 2-1 3-1 2-1 3-1 2-1 3v103h-57zM94 198l3-1h3l3-1 2-1 3-2 2-1 2-2 2-2 1-2 2-2 1-3 1-2 1-3 1-3v-2l1-3v-3l1-3v-22l-1-3v-3l-1-4-1-3-1-3-1-2-1-3-2-3-1-2-2-2-2-2-2-2-3-1-2-1-3-1-3-1-3-1h-7l-3 1-3 1h-3l-2 2-3 1-2 2-2 1-2 2-1 3-2 2-1 2-1 3-1 3-1 2-1 3-1 3v3l-1 3v18l1 3v4l1 3 1 3 1 3 1 3 1 2 1 3 2 2 1 3 2 2 2 2 3 2 2 1 3 1 2 1 3 1h3l4 1zm559 0 3-1h3l3-1 3-2 2-1 2-2 2-2 2-2 2-2 1-3 2-2 1-3 1-2 1-3 1-3v-3l1-3v-6l1-3v-6l-1-3v-6l-1-3v-2l-1-3-1-3-1-3-1-2-1-3-1-2-2-2-2-3-1-1-2-2-3-2-2-1-2-1-3-1-3-1h-3l-3-1-4 1h-3l-3 1-2 1-3 1-2 1-2 2-2 1-2 2-2 2-1 3-1 2-2 3-1 2-1 6-1 3-1 2v6l-1 3v12l1 2v6l1 3 1 3 1 5 1 3 2 2 1 3 1 2 2 2 2 2 2 2 2 1 2 2 3 1 2 1h3l3 1zm-262-96h-27V65h27V54l1-5v-5l1-5 1-4 1-4 2-3 1-4 2-3 2-3 2-3 3-2 2-2 3-2 4-2 3-1 4-2 4-1 4-1h4l5-1h44v41l-6-1h-19l-1 1h-2l-2 1-1 1-1 1-1 1-1 1-1 1v2l-1 2v13h33v37h-33v135h-57zM245 242l-4-1h-4l-4-1-4-1-4-1-4-1-3-1-3-2-3-2-3-2-3-2-3-3-2-2-2-3-2-3-2-3-1-4-2-4-1-3v-5l-1-4v-9l1-4v-4l1-4 1-3 2-3 1-3 2-3 2-3 2-2 2-2 3-2 2-2 3-2 3-2 3-1 3-2 3-1 3-1 4-1 3-1 4-1 3-1h4l7-1 7-2h4l7-1 3-1h4l7-1 3-1h3l2-1h2l2-1 2-1 2-1 1-1 1-1 1-2 1-1v-2l1-2v-5l-1-2-1-2-1-1-1-2-1-1-2-2-1-1-2-1-2-1h-2l-2-1h-3l-2-1h-13l-3 1-2 1-3 1-2 1-3 2-2 2-1 2-2 2-1 3-1 3-1 3h-53v-5l1-5 1-4 1-4 2-4 1-3 2-4 2-3 3-3 2-2 3-3 3-2 3-3 3-2 4-2 5-2 4-2 5-1 5-1 5-1 5-1 6-1h36l4 1h3l4 1 4 1 3 1 4 1 3 1 4 1 3 2 3 1 3 2 3 2 2 2 3 2 2 3 2 2 2 3 2 3 1 4 2 3 1 4 1 4v4l1 5v100l1 4 1 4v4l1 4 2 3 2 5h-58l-1-4-1-3v-3l-1-3v-3l-3 3-3 2-4 3-3 2-4 2-4 2-4 2-5 1-4 1-4 1-5 1h-17zm399 0-6-1-6-1-5-1-6-1-5-2-5-2-5-3-5-2-4-3-4-3-4-4-4-3-4-4-3-4-3-5-3-4-3-5-2-5-2-5-2-5-1-5-1-6-1-6v-5l-1-6 1-6v-6l1-5 1-6 1-5 2-6 2-5 2-5 3-4 3-5 3-4 3-4 4-4 4-4 4-3 4-3 4-3 5-3 5-2 5-2 5-2 6-1 5-2h6l6-1h12l6 1h6l5 2 6 1 5 2 5 2 5 2 5 3 4 3 5 3 4 3 3 4 4 4 3 4 3 4 3 5 3 4 2 5 2 5 2 6 1 5 1 6 1 5 1 6v12l-1 5-1 6-1 6-1 5-2 5-2 5-2 5-3 5-3 4-3 5-3 4-4 4-3 3-4 4-5 3-4 3-5 2-5 3-5 2-5 2-6 1-5 1-6 1-6 1zm-572 0-5-1-5-1-5-1-5-1-4-1-4-2-4-2-4-3-3-2-3-3-4-3-2-3-3-3-3-3-2-4-2-4-3-4-1-4-2-4-2-4-1-5-1-4-1-5-1-4-1-5v-5l-1-4v-20l1-4v-5l1-5 1-4 2-5 1-4 1-4 2-4 2-4 2-4 3-4 2-3 3-4 3-3 3-3 3-3 3-3 4-2 4-2 4-2 4-2 4-1 5-1 4-1h21l5 1 4 1 4 2 5 1 4 3 4 2 3 3 3 3 4 3 3 4V0h56v237h-54v-20l-3 4-3 3-3 4-4 2-3 3-4 2-4 2-5 2-4 1-5 1-4 1H71zM926 31h15l1 1h2l1 1 1 1 1 2v5l-1 1v2l-1 1-1 1h-1l-2 1h-1l8 12h-6l-7-12h-4v12h-5zm11 12 1-1h1l1-1 1-1v-2l-1-1-1-1h-9v7zm1 21h3l2-1 2-1 2-1 2-2 1-2 2-2 1-2v-3l1-3v-5l-1-3v-3l-1-2-2-2-1-2-2-1-2-2-2-1-2-1h-10l-3 1-2 1-2 2-1 1-2 2-1 2-1 2-1 3-1 3v5l1 2v3l1 2 1 2 1 2 2 1 2 2 2 1 2 1 2 1h2l3 1zm-5 5h-3l-3-1-2-1-3-1-2-2-2-2-2-2-1-2-2-2-1-3v-3l-1-3v-6l1-3v-2l2-3 1-3 1-2 2-2 2-2 3-1 2-1 2-1 3-1h3l3-1 2 1h3l3 1 2 1 3 1 2 1 2 2 2 2 1 2 2 3 1 3v2l1 3v7l-1 3v2l-1 3-2 2-1 3-2 2-2 1-2 2-3 1-2 1-3 1h-3l-2 1z"/></svg>